<svg width="58" height="32" viewBox="0 0 58 32" fill="none" xmlns="http://www.w3.org/2000/svg">
<path fill-rule="evenodd" clip-rule="evenodd" d="M1.96278 27.4532C2.02889 28.2916 2.38356 28.8801 3.02677 29.2188C6.03917 30.7983 9.09324 31.466 12.189 31.2219C15.3169 30.9752 17.8734 30.2707 19.8584 29.1083C20.9413 28.4388 21.7433 27.4995 22.2645 26.2903C22.8153 25.0463 23.0246 23.5858 22.8924 21.909C22.7602 20.2321 22.3283 18.8709 21.5969 17.8254C20.8952 16.745 20.059 16.016 19.0882 15.6383C17.0101 14.7963 14.8979 14.3463 12.7518 14.2884C10.5361 14.1711 9.39014 13.6288 9.31386 12.6614C9.25791 11.9519 9.59617 8.52636 13.357 8.22979C14.5778 8.13352 16.5534 8.29353 18.0052 8.77997C18.8311 9.20152 20.2419 10.2569 20.8469 11.8608L28.4893 28.6825C28.7608 29.2452 29.258 29.79 29.981 30.3171C30.7014 30.8119 31.5615 31.0199 32.5611 30.941C33.5608 30.8622 34.4171 30.4053 35.13 29.5703C35.3973 29.2572 35.6286 28.8983 35.8238 28.4935C36.019 28.0888 36.1277 27.8206 36.1497 27.6891C36.2015 27.5227 36.2915 27.2236 36.4197 26.7917C36.5776 26.325 36.8942 25.1968 37.3696 23.4071C37.8747 21.5827 38.2579 20.2708 38.5193 19.4714C40.5098 23.7273 41.6594 26.1676 41.9683 26.7922L42.4201 27.584C42.6916 28.1466 43.1888 28.6915 43.9117 29.2185C44.6644 29.7108 45.4116 29.9277 46.1533 29.8692C46.895 29.8107 47.4987 29.6495 47.9647 29.3856C49.0475 28.7162 49.7749 27.653 50.1467 26.1959L54.4452 12.813C54.7287 11.8821 55.0814 10.7997 55.5033 9.56589C55.9226 8.29981 56.1107 7.39268 56.0674 6.84447C55.9632 5.52234 54.8436 4.49118 52.7085 3.75101C52.0059 3.48194 51.3482 3.37156 50.7355 3.41988C49.1877 3.54194 48.1082 4.66539 47.497 6.79025L45.1795 15.0525C44.8385 14.4304 43.6837 11.9257 41.7154 7.5382L41.2636 6.74641C40.9649 6.25079 40.4405 5.77298 39.6904 5.31297C38.9725 4.85042 38.1299 4.65729 37.1625 4.73358C36.1951 4.80987 35.2807 5.35246 34.4192 6.36138C33.9414 6.88577 33.6312 7.47807 33.4886 8.13827L31.2526 16.1994C30.9573 15.5531 30.6595 14.8695 30.354 14.1682C29.2591 11.6554 28.0654 8.91558 26.5356 6.84923C26.5036 6.80098 26.4725 6.75156 26.4404 6.70059C26.2881 6.45838 26.114 6.18136 25.7139 5.83107C24.3552 4.6416 21.898 3.32125 20.7058 2.91547C20.5163 2.81622 20.3046 2.7239 20.0708 2.63852C17.5658 1.73283 15.1685 1.37026 12.879 1.55081C5.88135 2.10263 1.31023 8.06844 1.71202 13.1635C1.84679 14.8726 2.27012 16.3318 2.98199 17.5411C3.69131 18.7182 4.53645 19.5601 5.51739 20.0668C7.61335 21.1345 9.68855 21.7334 11.743 21.8634C13.9265 21.9833 15.0423 22.3495 15.0907 22.9622C15.1517 23.7362 14.1987 24.2007 12.2316 24.3558C11.1352 24.4423 9.87927 24.1519 8.46386 23.4848C7.04591 22.7854 5.93384 22.4675 5.12766 22.5311C4.35373 22.5921 3.81102 22.9107 3.49953 23.4869C2.40891 25.2926 1.89666 26.6147 1.96278 27.4532Z" fill="#65A30D"/>
</svg>
