<svg width="81" height="80" viewBox="0 0 81 80" fill="none" xmlns="http://www.w3.org/2000/svg">
<path d="M80.0836 39.9847C80.0836 61.8001 62.0064 79.8773 40.1603 79.8773C18.3449 79.8773 0.267578 61.8001 0.267578 39.9847C0.267578 18.1386 18.3142 0.0612793 40.1296 0.0612793C61.9757 0.0612793 80.0836 18.1386 80.0836 39.9847Z" fill="#BEF264"/>
<path d="M53.5789 53.4904C54.8246 53.4904 55.9004 52.5562 55.9004 50.7442V29.3407C55.9004 27.5571 54.8246 26.6228 53.5789 26.6228C52.956 26.6228 52.3332 26.8493 51.7387 27.2173L33.8458 37.7209C32.7982 38.3437 32.2886 39.1364 32.2886 40.0424C32.2886 40.9484 32.7982 41.7694 33.8458 42.364L51.7387 52.8959C52.3332 53.2639 52.956 53.4904 53.5789 53.4904ZM26.5131 54H30.42C31.8356 54 32.5717 53.2922 32.5717 51.8483V28.1233C32.5717 26.6511 31.8356 25.9999 30.42 25.9999H26.5131C25.1258 25.9999 24.3896 26.6794 24.3896 28.1233V51.8483C24.3896 53.2922 25.1258 54 26.5131 54Z" fill="#84CC16"/>
</svg>
