<svg width="81" height="80" viewBox="0 0 81 80" fill="none" xmlns="http://www.w3.org/2000/svg">
<path d="M40.6242 79.8773C62.4702 79.8773 80.5475 61.8001 80.5475 39.9847C80.5475 18.1386 62.4396 0.0612793 40.5935 0.0612793C18.7781 0.0612793 0.731445 18.1386 0.731445 39.9847C0.731445 61.8001 18.8088 79.8773 40.6242 79.8773Z" fill="#BEF264"/>
<path d="M18.1621 49.9864C18.1621 51.1107 18.998 51.9178 20.2088 51.9178H24.7056C27.9917 51.9178 30.0096 50.9376 32.4309 48.1416L44.1053 34.4493C45.7484 32.4891 46.9591 31.7973 49.1499 31.7973H52.4648V35.8041C52.4648 36.8131 53.099 37.476 54.0502 37.476C54.5403 37.476 55.0304 37.3031 55.3474 36.9859L62.7268 31.019C63.5628 30.3272 63.5916 29.1165 62.7557 28.4247L55.3185 22.3713C54.9726 22.083 54.5114 21.939 54.0502 21.939C53.0702 21.939 52.4648 22.573 52.4648 23.582V27.9347H49.0346C45.7484 27.9347 43.7306 28.9147 41.3093 31.7109L29.6636 45.4031C27.9917 47.3921 26.7233 48.055 24.7632 48.055H20.2088C19.0558 48.055 18.1621 48.891 18.1621 49.9864ZM18.1621 29.866C18.1621 30.9614 19.0558 31.7973 20.2088 31.7973H24.7632C26.7233 31.7973 28.0205 32.4891 29.6636 34.4493L41.3093 48.1416C43.7306 50.9376 45.7484 51.9178 49.0346 51.9178H52.4648V56.3569C52.4648 57.3658 53.0702 58 54.0502 58C54.5114 58 54.9726 57.8558 55.3185 57.5676L62.7268 51.543C63.5916 50.8512 63.5916 49.6693 62.7557 48.9775L55.3474 42.9817C55.0304 42.6358 54.5403 42.4629 54.0502 42.4629C53.099 42.4629 52.4648 43.1259 52.4648 44.1347V48.055H49.1499C46.9591 48.055 45.7484 47.3632 44.1053 45.4031L32.4309 31.7109C30.0096 28.9147 27.9917 27.9347 24.7056 27.9347H20.2088C18.998 27.9347 18.1621 28.7419 18.1621 29.866Z" fill="#84CC16"/>
</svg>
