<svg width="81" height="80" viewBox="0 0 81 80" fill="none" xmlns="http://www.w3.org/2000/svg">
<g clip-path="url(#clip0_319_858)">
<path d="M39.7457 79.2698C61.4422 79.2698 79.3957 61.3163 79.3957 39.6503C79.3957 17.9537 61.4118 0.00012207 39.7152 0.00012207C18.0491 0.00012207 0.125977 17.9537 0.125977 39.6503C0.125977 61.3163 18.0796 79.2698 39.7457 79.2698Z" fill="#BEF264"/>
<path d="M32.6255 36.5159C37.6464 36.4855 41.6631 34.7814 44.9496 31.4037C41.7545 27.3565 38.2246 25.1656 32.8386 25.135C27.4524 25.135 23.8921 26.8087 20.484 31.4644C23.7704 34.8422 27.8785 36.5462 32.6255 36.5159ZM20.9101 47.2576C23.5573 44.6101 25.4745 40.8064 25.931 37.6417C23.5573 36.7593 20.8491 35.116 19.1451 33.4119C18.2931 34.751 17.3497 36.242 16.5586 37.8244C14.9458 40.8674 13.0287 42.6626 11.7202 43.6973C11.3246 44.0625 11.0508 44.6101 11.0508 45.1883C11.0508 46.01 11.8724 46.5272 13.546 46.5272C14.3068 46.5272 15.2197 46.5272 15.9804 46.5272C18.0801 46.5272 19.5103 46.8316 20.9101 47.2576ZM32.443 51.2439C36.6726 51.2439 39.6243 49.2964 42.1806 48.1402C39.4114 45.371 37.7681 41.8715 37.4639 38.2199C35.8816 38.6764 34.2992 38.8895 32.6865 38.8895C31.0128 38.8895 29.4912 38.7068 27.9698 38.3113C27.6047 41.5977 25.9917 45.2189 23.2835 48.1402C25.6268 49.1443 28.3654 51.2439 32.443 51.2439ZM44.3715 47.2272C46.045 46.7403 47.597 46.4361 49.6966 46.4361C51.1878 46.4361 52.7092 46.2534 53.4092 45.7665C51.4313 43.3018 47.9925 36.2117 46.1668 33.2294C44.341 34.9945 41.6024 36.7289 39.5332 37.5504C39.8677 40.8978 41.4807 44.3059 44.3715 47.2272ZM62.4772 42.4192C66.8894 42.4192 69.8717 40.7151 69.8717 38.0373C69.8717 32.2253 66.7373 28.0563 61.9903 28.0563C57.7911 28.0563 55.2653 30.6733 54.2612 34.5684C53.4092 37.3983 52.4962 38.4938 51.6747 39.3154C52.6788 40.8674 54.0785 43.2408 55.3567 44.9145C57.9128 43.6669 59.2213 42.4192 62.4772 42.4192ZM62.5075 36.3638C61.6861 36.3638 61.0469 35.6942 61.0469 34.8726C61.0469 34.0815 61.6861 33.3815 62.5075 33.3815C63.2379 33.3815 63.9682 34.0815 63.9682 34.8726C63.9682 35.6942 63.2379 36.3638 62.5075 36.3638ZM16.1326 54.1652C18.993 54.1652 21.9446 52.8566 23.4662 50.818C21.2143 49.6008 19.4494 48.6878 17.1063 48.627C16.4673 48.7791 15.737 48.8095 15.0675 48.9312C13.3634 49.3574 12.0245 49.9354 12.0245 51.396C12.0245 53.161 13.759 54.1652 16.1326 54.1652ZM48.6621 54.2565C51.0355 54.2565 52.77 53.2218 52.77 51.4873C52.77 50.0571 51.4313 48.9616 49.7272 48.7486C48.875 48.7182 48.236 48.6878 47.3536 48.6574C45.5887 48.7791 42.6979 50.1181 41.3893 50.9395C42.8196 52.9784 45.8016 54.2565 48.6621 54.2565Z" fill="#84CC16"/>
</g>
<defs>
<clipPath id="clip0_319_858">
<rect width="80" height="79.3307" fill="white" transform="translate(0.125)"/>
</clipPath>
</defs>
</svg>
