<svg width="81" height="80" viewBox="0 0 81 80" fill="none" xmlns="http://www.w3.org/2000/svg">
<g clip-path="url(#clip0_319_864)">
<path d="M40.1198 79.6004C61.8162 79.6004 79.7697 61.6469 79.7697 39.9808C79.7697 18.2843 61.7858 0.330688 40.0892 0.330688C18.4232 0.330688 0.5 18.2843 0.5 39.9808C0.5 61.6469 18.4536 79.6004 40.1198 79.6004Z" fill="#84CC16"/>
<path d="M32.9996 36.8464C38.0204 36.8161 42.0372 35.112 45.3236 31.7342C42.1285 27.6871 38.5986 25.4962 33.2126 25.4656C27.8264 25.4656 24.2661 27.1393 20.858 31.795C24.1444 35.1727 28.2525 36.8768 32.9996 36.8464ZM21.2841 47.5881C23.9314 44.9407 25.8485 41.137 26.305 37.9723C23.9314 37.0899 21.2232 35.4466 19.5191 33.7425C18.6671 35.0816 17.7238 36.5726 16.9326 38.155C15.3198 41.1979 13.4027 42.9932 12.0942 44.0279C11.6987 44.393 11.4248 44.9407 11.4248 45.5189C11.4248 46.3405 12.2464 46.8578 13.92 46.8578C14.6808 46.8578 15.5937 46.8578 16.3544 46.8578C18.4541 46.8578 19.8843 47.1622 21.2841 47.5881ZM32.8171 51.5745C37.0467 51.5745 39.9983 49.627 42.5546 48.4707C39.7855 45.7016 38.1421 42.2021 37.8379 38.5505C36.2556 39.007 34.6732 39.2201 33.0605 39.2201C31.3868 39.2201 29.8652 39.0374 28.3438 38.6418C27.9787 41.9283 26.3658 45.5495 23.6575 48.4707C26.0008 49.4749 28.7394 51.5745 32.8171 51.5745ZM44.7456 47.5577C46.4191 47.0709 47.971 46.7667 50.0706 46.7667C51.5619 46.7667 53.0832 46.584 53.7832 46.0971C51.8053 43.6323 48.3666 36.5422 46.5408 33.56C44.715 35.325 41.9764 37.0595 39.9072 37.881C40.2418 41.2283 41.8547 44.6365 44.7456 47.5577ZM62.8512 42.7497C67.2635 42.7497 70.2457 41.0457 70.2457 38.3678C70.2457 32.5559 67.1114 28.3868 62.3643 28.3868C58.1651 28.3868 55.6394 31.0039 54.6352 34.8989C53.7832 37.7289 52.8702 38.8243 52.0487 39.646C53.0529 41.1979 54.4525 43.5714 55.7307 45.2451C58.2868 43.9975 59.5953 42.7497 62.8512 42.7497ZM62.8816 36.6943C62.0601 36.6943 61.4209 36.0248 61.4209 35.2031C61.4209 34.412 62.0601 33.7121 62.8816 33.7121C63.6119 33.7121 64.3422 34.412 64.3422 35.2031C64.3422 36.0248 63.6119 36.6943 62.8816 36.6943ZM16.5066 54.4957C19.367 54.4957 22.3186 53.1872 23.8402 51.1486C21.5883 49.9314 19.8234 49.0184 17.4803 48.9576C16.8413 49.1097 16.111 49.1401 15.4415 49.2618C13.7375 49.6879 12.3986 50.2659 12.3986 51.7266C12.3986 53.4916 14.1331 54.4957 16.5066 54.4957ZM49.0361 54.5871C51.4096 54.5871 53.144 53.5524 53.144 51.8179C53.144 50.3877 51.8053 49.2922 50.1012 49.0791C49.249 49.0488 48.61 49.0184 47.7276 48.988C45.9628 49.1097 43.0719 50.4486 41.7633 51.2701C43.1936 53.3089 46.1756 54.5871 49.0361 54.5871Z" fill="#BEF264"/>
</g>
<defs>
<clipPath id="clip0_319_864">
<rect width="80" height="79.3307" fill="white" transform="translate(0.5 0.330688)"/>
</clipPath>
</defs>
</svg>
