<svg width="81" height="80" viewBox="0 0 81 80" fill="none" xmlns="http://www.w3.org/2000/svg">
<path d="M40.2677 79.8161C62.1138 79.8161 80.1911 61.7388 80.1911 39.9234C80.1911 18.0774 62.0831 0 40.237 0C18.4217 0 0.375 18.0774 0.375 39.9234C0.375 61.7388 18.4524 79.8161 40.2677 79.8161Z" fill="#BEF264"/>
<g clip-path="url(#clip0_319_870)">
<path d="M58.1593 59.8112C58.7313 60.2219 59.5087 60.0605 59.9487 59.4152C63.1901 54.5897 65.2876 48.6935 65.2876 41.844C65.2876 34.9798 63.146 29.0983 59.9487 24.2582C59.5087 23.5981 58.7313 23.4515 58.1593 23.8621C57.558 24.2728 57.47 25.0502 57.9246 25.7102C60.8434 30.1396 62.8085 35.5078 62.8085 41.844C62.8085 48.1655 60.8434 53.5483 57.9246 57.9631C57.47 58.6231 57.558 59.4005 58.1593 59.8112Z" fill="#84CC16"/>
<path d="M51.2945 54.7803C51.8959 55.191 52.6439 55.059 53.0692 54.443C55.504 51.1576 56.956 46.5374 56.956 41.844C56.956 37.1358 55.5186 32.4863 53.0692 29.2449C52.6439 28.6289 51.8959 28.4823 51.2945 28.8929C50.7078 29.3036 50.6052 30.0516 51.0745 30.7263C53.2306 33.7184 54.448 37.6932 54.448 41.844C54.448 45.9948 53.2013 49.9549 51.0745 52.9616C50.6199 53.6217 50.7078 54.3843 51.2945 54.7803Z" fill="#84CC16"/>
<path d="M44.5042 49.8376C45.0616 50.2189 45.8243 50.0869 46.2496 49.4709C47.7017 47.5641 48.611 44.7921 48.611 41.844C48.611 38.8812 47.7017 36.1238 46.2496 34.2024C45.8243 33.5864 45.0616 33.4691 44.5042 33.8504C43.8589 34.3051 43.7562 35.0971 44.2549 35.7718C45.4576 37.4145 46.103 39.5119 46.103 41.844C46.103 44.1614 45.4429 46.2441 44.2549 47.9161C43.7709 48.5908 43.8589 49.3682 44.5042 49.8376Z" fill="#84CC16"/>
<path d="M35.6009 58.3297C36.7449 58.3297 37.5223 57.4937 37.5223 56.379V27.4115C37.5223 26.2968 36.7449 25.3875 35.5716 25.3875C34.7649 25.3875 34.2075 25.7395 33.3715 26.5315L25.1726 34.305C25.0406 34.437 24.8646 34.4957 24.6446 34.4957H19.0858C16.739 34.4957 15.375 35.8597 15.375 38.3531V45.452C15.375 47.9308 16.739 49.2948 19.0858 49.2948H24.6446C24.8646 49.2948 25.0406 49.3681 25.1726 49.5001L33.3715 57.259C34.1342 57.9777 34.7942 58.3297 35.6009 58.3297Z" fill="#84CC16"/>
</g>
<defs>
<clipPath id="clip0_319_870">
<rect width="50" height="36.4368" fill="white" transform="translate(15.375 23.6329)"/>
</clipPath>
</defs>
</svg>
