<svg width="80" height="80" viewBox="0 0 80 80" fill="none" xmlns="http://www.w3.org/2000/svg">
<g clip-path="url(#clip0_323_292)">
<path d="M27 51.4849C27 54.4795 28.4973 56 31.4686 56H47.4512C50.4226 56 51.9198 54.4795 51.9198 51.4849V28.5266C51.9198 25.5321 50.4226 24.0116 47.4512 24.0116H31.4686C28.4973 24.0116 27 25.5321 27 28.5266V51.4849ZM29.0544 51.4385V28.5731C29.0544 26.9481 29.9133 26.066 31.5847 26.066H47.3352C49.0065 26.066 49.8654 26.9481 49.8654 28.5731V51.4385C49.8654 53.0634 49.0065 53.9455 47.3352 53.9455H31.5847C29.9133 53.9455 29.0544 53.0634 29.0544 51.4385Z" fill="#4D7C0F"/>
<path d="M32.8031 41.5147C33.5576 41.5147 34.1727 40.8995 34.1727 40.1451C34.1727 39.379 33.5576 38.7639 32.8031 38.7639C32.0486 38.7639 31.4219 39.3906 31.4219 40.1451C31.4219 40.888 32.0486 41.5147 32.8031 41.5147ZM37.0047 40.9576H46.6848C47.1375 40.9576 47.4973 40.5978 47.4973 40.1451C47.4973 39.6924 47.1491 39.3326 46.6848 39.3326H37.0047C36.5405 39.3326 36.1923 39.6924 36.1923 40.1451C36.1923 40.5978 36.5521 40.9576 37.0047 40.9576Z" fill="#4D7C0F"/>
<path d="M32.8031 36.6978C33.5576 36.6978 34.1727 36.0826 34.1727 35.3166C34.1727 34.5506 33.5576 33.947 32.8031 33.947C32.037 33.947 31.4219 34.5621 31.4219 35.3166C31.4219 36.0826 32.037 36.6978 32.8031 36.6978ZM37.0047 36.1291H46.6848C47.1491 36.1291 47.4973 35.7809 47.4973 35.3166C47.4973 34.8639 47.1491 34.5157 46.6848 34.5157H37.0047C36.5405 34.5157 36.1923 34.8639 36.1923 35.3166C36.1923 35.7809 36.5405 36.1291 37.0047 36.1291Z" fill="#4D7C0F"/>
<path d="M32.8031 32.0436C33.5576 32.0436 34.1727 31.4284 34.1727 30.6623C34.1727 29.9079 33.5576 29.2927 32.8031 29.2927C32.0486 29.2927 31.4219 29.9195 31.4219 30.6623C31.4219 31.4168 32.0486 32.0436 32.8031 32.0436ZM37.0047 31.4864H46.6848C47.1375 31.4864 47.4973 31.115 47.4973 30.6623C47.4973 30.2097 47.1375 29.8499 46.6848 29.8499H37.0047C36.5521 29.8499 36.1923 30.2097 36.1923 30.6623C36.1923 31.115 36.5521 31.4864 37.0047 31.4864Z" fill="#4D7C0F"/>
</g>
<defs>
<clipPath id="clip0_323_292">
<rect width="25.1404" height="32" fill="white" transform="translate(27 24)"/>
</clipPath>
</defs>
</svg>
